<?xml version="1.0" encoding="UTF-8"?>
<!DOCTYPE svg PUBLIC "-//W3C//DTD SVG 1.1//EN" "http://www.w3.org/Graphics/SVG/1.1/DTD/svg11.dtd">
<svg xmlns="http://www.w3.org/2000/svg" version="1.1" width="512px" height="512px" style="shape-rendering:geometricPrecision; text-rendering:geometricPrecision; image-rendering:optimizeQuality; fill-rule:evenodd; clip-rule:evenodd" xmlns:xlink="http://www.w3.org/1999/xlink">
<g><path style="opacity:0.997" fill="#e9c3ad" d="M 52.5,-0.5 C 187.833,-0.5 323.167,-0.5 458.5,-0.5C 487.176,6.17555 504.842,23.8422 511.5,52.5C 511.5,187.833 511.5,323.167 511.5,458.5C 504.824,487.176 487.158,504.842 458.5,511.5C 323.167,511.5 187.833,511.5 52.5,511.5C 23.8245,504.824 6.15779,487.158 -0.5,458.5C -0.5,323.167 -0.5,187.833 -0.5,52.5C 6.17555,23.8245 23.8422,6.15779 52.5,-0.5 Z"/></g>
<g><path style="opacity:1" fill="#eac6af" d="M 69.5,21.5 C 193.028,21.7072 316.695,21.8739 440.5,22C 473.376,23.2271 491.71,39.8938 495.5,72C 496.167,75.6667 496.833,79.3333 497.5,83C 497.574,171.582 497.24,259.582 496.5,347C 497.303,351.414 497.803,355.914 498,360.5C 498.889,359.112 499.389,359.278 499.5,361C 499.389,362.722 498.889,362.888 498,361.5C 497.813,368.081 497.313,374.581 496.5,381C 497.38,401.268 497.713,421.268 497.5,441C 497.573,480.601 477.74,502.101 438,505.5C 319.678,505.316 200.678,505.316 81,505.5C 39.0713,506.873 16.5713,487.039 13.5,446C 13.5052,323.391 13.5052,201.057 13.5,79C 15.9039,43.7649 34.5706,24.5982 69.5,21.5 Z"/></g>
<g><path style="opacity:1" fill="#eac9b3" d="M 92.5,26.5 C 93.8068,27.1534 95.1401,27.8201 96.5,28.5C 105.057,28.4016 113.557,28.4016 122,28.5C 122.308,27.6919 122.808,27.0253 123.5,26.5C 123.833,27.1667 124.167,27.8333 124.5,28.5C 177.546,28.1209 230.046,28.1209 282,28.5C 284.034,28.6464 285.701,27.9797 287,26.5C 287.333,27.1667 287.667,27.8333 288,28.5C 306.737,27.9946 326.237,27.9946 346.5,28.5C 348.326,26.2192 350.326,26.2192 352.5,28.5C 361.057,28.4016 369.557,28.4016 378,28.5C 378.308,27.6919 378.808,27.0253 379.5,26.5C 379.833,27.1667 380.167,27.8333 380.5,28.5C 397.241,28.2077 414.408,27.8744 432,27.5C 441.695,27.8274 451.195,29.4941 460.5,32.5C 461.167,32.1667 461.833,31.8333 462.5,31.5C 463.696,31.8457 463.696,32.3457 462.5,33C 472.244,37.4067 479.744,44.9067 485,55.5C 487.388,62.5506 489.221,69.7173 490.5,77C 490.161,139.352 490.161,201.852 490.5,264.5C 490.333,326.167 490.167,387.833 490,449.5C 489.782,459.817 486.116,470.483 479,481.5C 469.162,492 456.995,497.5 442.5,498C 317.126,498.496 191.96,498.663 67,498.5C 39.6799,495.18 24.3466,479.847 21,452.5C 20.3333,326.833 20.3333,201.167 21,75.5C 23.527,50.7982 35.6937,35.6316 57.5,30C 64.8515,29.1187 72.1848,28.2854 79.5,27.5C 83.4912,27.8087 87.1578,28.142 90.5,28.5C 91.5223,28.1445 92.189,27.4778 92.5,26.5 Z"/></g>
<g><path style="opacity:1" fill="#ebcdb6" d="M 67.5,35.5 C 191.436,35.5406 315.936,35.5406 441,35.5C 445.536,36.148 450.036,36.9813 454.5,38C 464.607,41.2175 472.441,47.7175 478,57.5C 480.77,65.7138 482.604,73.8804 483.5,82C 483.097,202.811 483.097,323.478 483.5,444C 483.113,456.978 479.113,468.645 471.5,479C 463.616,486.444 454.616,489.944 444.5,489.5C 441.891,490.23 439.224,490.73 436.5,491C 376,491.167 315.5,491.333 255,491.5C 193.21,491.16 131.544,491.16 70,491.5C 43.0137,488.835 28.847,473.668 27.5,446C 27.9577,324.184 28.1243,202.017 28,79.5C 29.6843,72.6654 31.0176,65.9988 32,59.5C 37.9776,47.248 47.311,39.5813 60,36.5C 60.3333,36.8333 60.6667,37.1667 61,37.5C 63.277,36.8828 65.4437,36.2161 67.5,35.5 Z"/></g>
<g><path style="opacity:1" fill="#ecd0b9" d="M 64.5,39.5 C 114.589,40.1264 164.756,40.7931 215,41.5C 291.765,40.7913 368.265,40.1247 444.5,39.5C 446.208,41.6911 448.208,42.0244 450.5,40.5C 452.05,42.959 454.05,43.6257 456.5,42.5C 456.833,43.1667 457.167,43.8333 457.5,44.5C 458.086,44.2907 458.586,43.9574 459,43.5C 463.635,46.0782 467.969,49.7449 472,54.5C 472.276,56.7665 472.943,59.0999 474,61.5C 474.645,62.646 475.478,63.646 476.5,64.5C 476.291,65.086 475.957,65.586 475.5,66C 476.627,67.7533 477.627,69.5866 478.5,71.5C 478.072,73.3856 477.739,75.2189 477.5,77C 478.167,77.6667 478.833,78.3333 479.5,79C 479.138,202.421 479.138,325.087 479.5,447C 479.241,448.261 478.574,449.261 477.5,450C 477.501,451.399 477.835,452.899 478.5,454.5C 476.615,455.197 476.282,456.197 477.5,457.5C 475.448,459.793 474.781,462.293 475.5,465C 473.519,465.605 473.185,466.605 474.5,468C 473.672,468.915 472.672,469.581 471.5,470C 471.833,470.333 472.167,470.667 472.5,471C 471.151,471.772 470.318,472.939 470,474.5C 469.086,473.346 468.253,473.513 467.5,475C 467.833,475.333 468.167,475.667 468.5,476C 467.333,477.167 466.167,478.333 465,479.5C 462.67,478.844 461.003,479.844 460,482.5C 458.94,482.746 457.773,482.746 456.5,482.5C 455.186,483.313 454.019,484.313 453,485.5C 452,485.167 451,484.833 450,484.5C 449.193,486.22 447.693,486.554 445.5,485.5C 443.865,485.878 442.365,486.544 441,487.5C 316.889,486.537 192.889,486.537 69,487.5C 67.9895,487.108 67.4895,486.441 67.5,485.5C 65.5,485.833 63.5,486.167 61.5,486.5C 60.5224,486.023 59.6891,485.357 59,484.5C 57.984,485.634 57.3173,485.301 57,483.5C 56.2825,484.451 55.4491,484.617 54.5,484C 55.3402,482.334 54.8402,482.167 53,483.5C 52.6827,481.699 52.016,481.366 51,482.5C 45.3055,476.997 40.4722,471.997 36.5,467.5C 36.7093,466.914 37.0426,466.414 37.5,466C 36.8905,463.942 35.8905,463.109 34.5,463.5C 34.8679,461.2 34.8679,459.033 34.5,457C 33.6919,456.692 33.0253,456.192 32.5,455.5C 32.6322,454.037 32.9655,452.537 33.5,451C 32.9777,450.05 32.311,449.216 31.5,448.5C 31.7621,324.845 31.7621,201.845 31.5,79.5C 32.1667,78.1667 32.8333,76.8333 33.5,75.5C 32.2529,72.4776 32.2529,69.4776 33.5,66.5C 35.0267,64.8067 36.3601,62.9734 37.5,61C 37.0426,60.586 36.7093,60.086 36.5,59.5C 39.6568,56.9428 41.4902,53.9428 42,50.5C 42.3333,50.8333 42.6667,51.1667 43,51.5C 43.4419,49.3215 44.4419,48.6548 46,49.5C 46.3333,48.5 46.6667,47.5 47,46.5C 50.3125,46.5262 53.6459,44.8595 57,41.5C 58.6472,40.86 60.4805,40.86 62.5,41.5C 63.7133,41.2528 64.38,40.5862 64.5,39.5 Z"/></g>
<g><path style="opacity:1" fill="#ecd3bd" d="M 183.5,43.5 C 269.625,43.9194 355.959,44.4194 442.5,45C 460.2,47.0333 470.367,56.8667 473,74.5C 473.203,78.4213 473.703,82.2546 474.5,86C 474.5,204 474.5,322 474.5,440C 474.351,451.411 471.184,461.911 465,471.5C 456.999,478.502 447.665,482.168 437,482.5C 316.289,482.101 195.623,482.101 75,482.5C 49.8399,481.673 37.1732,468.673 37,443.5C 36.1679,323.264 36.3345,203.097 37.5,83C 37.0719,74.5438 39.2386,66.0438 44,57.5C 50.6911,49.7381 59.1911,45.5715 69.5,45C 107.669,44.8326 145.669,44.3326 183.5,43.5 Z"/></g>
<g><path style="opacity:1" fill="#edd6c0" d="M 144.5,48.5 C 160.316,49.3779 175.816,49.3779 191,48.5C 193.667,49.1667 196.333,49.8333 199,50.5C 207,49.1667 215,49.1667 223,50.5C 232.191,48.5274 241.525,48.5274 251,50.5C 295,49.5221 339.333,49.5221 384,50.5C 389.667,49.8333 395.333,49.1667 401,48.5C 410.333,49.8333 419.667,49.8333 429,48.5C 431.667,49.1667 434.333,49.8333 437,50.5C 440.667,49.1667 444.333,49.1667 448,50.5C 451.272,52.5516 454.772,54.2183 458.5,55.5C 460.289,58.7883 462.622,61.6216 465.5,64C 464.892,66.1841 465.559,68.1841 467.5,70C 467.167,70.3333 466.833,70.6667 466.5,71C 467.338,74.7774 468.338,78.6107 469.5,82.5C 468.278,202.667 468.278,323.167 469.5,444C 468.833,446.333 468.167,448.667 467.5,451C 467.957,451.414 468.291,451.914 468.5,452.5C 466.625,455.24 465.958,458.073 466.5,461C 463.248,465.708 459.415,469.874 455,473.5C 454.667,473.167 454.333,472.833 454,472.5C 450.054,474.319 446.054,475.985 442,477.5C 318.459,476.771 194.792,476.771 71,477.5C 55.8539,475.675 46.3539,467.508 42.5,453C 42.9574,452.586 43.2907,452.086 43.5,451.5C 42.8333,449.167 42.1667,446.833 41.5,444.5C 42.2259,322.559 42.2259,200.726 41.5,79C 43.1684,77.4325 43.5017,75.7658 42.5,74C 43.9592,69.0831 45.7925,64.2498 48,59.5C 48.3333,59.8333 48.6667,60.1667 49,60.5C 52.7619,55.9477 57.4286,52.6144 63,50.5C 83.8124,49.2079 105.479,49.2079 128,50.5C 133.6,49.8536 139.1,49.1869 144.5,48.5 Z"/></g>
<g><path style="opacity:1" fill="#edd9c3" d="M 68.5,54.5 C 80.667,55.1572 92.8337,55.8238 105,56.5C 105.333,55.8333 105.667,55.1667 106,54.5C 116.044,55.0475 126.044,56.0475 136,57.5C 137,56.8333 138,56.1667 139,55.5C 174.367,55.3276 210.034,55.6609 246,56.5C 261.397,55.9162 276.731,55.2495 292,54.5C 292.667,55.8333 293.667,56.8333 295,57.5C 298.132,56.0237 301.465,55.3571 305,55.5C 323.681,55.2966 342.347,55.63 361,56.5C 361.333,55.8333 361.667,55.1667 362,54.5C 372.044,55.0475 382.044,56.0475 392,57.5C 393,56.8333 394,56.1667 395,55.5C 406.046,56.1851 417.379,56.1851 429,55.5C 433.167,55.6667 437.333,55.8333 441.5,56C 440.833,56.3333 440.167,56.6667 439.5,57C 447.02,57.5268 453.52,60.3601 459,65.5C 460.841,69.4979 461.675,73.4979 461.5,77.5C 460.633,74.065 459.466,70.7317 458,67.5C 458.629,71.4256 459.295,75.4256 460,79.5C 460.5,202.833 460.667,326.166 460.5,449.5C 461.675,449.281 462.675,449.614 463.5,450.5C 463.154,451.696 462.654,451.696 462,450.5C 459.631,465.196 450.964,472.196 436,471.5C 429.83,470.997 423.497,470.997 417,471.5C 414.815,471.079 412.649,470.579 410.5,470C 421.5,469.667 432.5,469.333 443.5,469C 444.833,468.667 446.167,468.333 447.5,468C 446.667,467.833 445.833,467.667 445,467.5C 319.144,468.499 193.477,468.832 68,468.5C 65.6105,467.276 63.1105,466.776 60.5,467C 62.5951,467.556 62.7618,468.056 61,468.5C 59.3435,467.516 57.6768,466.516 56,465.5C 55.0568,462.6 53.3901,460.267 51,458.5C 50.0256,454.579 48.859,450.746 47.5,447C 47.9574,446.586 48.2907,446.086 48.5,445.5C 47.8506,438.636 47.1839,431.802 46.5,425C 48.707,421.445 48.707,417.779 46.5,414C 47.1667,405 47.8333,396 48.5,387C 45.8426,381.255 46.5093,376.255 50.5,372C 49.4258,371.261 48.7591,370.261 48.5,369C 48.5668,365.58 48.9002,362.247 49.5,359C 47.8715,355.238 46.8715,351.238 46.5,347C 46.7018,341.101 46.7018,335.434 46.5,330C 48.8697,323.481 48.8697,316.981 46.5,310.5C 47.8088,304.993 47.8088,299.493 46.5,294C 47.2688,288.204 47.7688,282.371 48,276.5C 48.414,276.043 48.914,275.709 49.5,275.5C 50.8333,271.167 50.8333,266.833 49.5,262.5C 48.914,262.709 48.414,263.043 48,263.5C 47.6007,256.796 47.7674,250.63 48.5,245C 47.8333,244 47.1667,243 46.5,242C 46.6208,237.312 47.2874,232.479 48.5,227.5C 48.3335,216.244 48.0001,205.244 47.5,194.5C 47.8457,193.304 48.3457,193.304 49,194.5C 49.3333,196.167 49.6667,197.833 50,199.5C 51.3568,192.366 50.1901,185.866 46.5,180C 47.8333,176.333 47.8333,172.667 46.5,169C 48.707,165.445 48.707,161.779 46.5,158C 47.1667,149 47.8333,140 48.5,131C 45.8426,125.255 46.5093,120.255 50.5,116C 49.4258,115.261 48.7591,114.261 48.5,113C 48.5668,109.58 48.9002,106.247 49.5,103C 47.8513,96.8693 46.8513,90.5359 46.5,84C 48.3008,83.6827 48.6341,83.016 47.5,82C 48.3827,67.3727 55.3827,58.206 68.5,54.5 Z"/></g>
<g><path style="opacity:1" fill="#5b2244" d="M 235.5,203.5 C 237.167,203.5 238.833,203.5 240.5,203.5C 237.84,216.46 235.673,229.46 234,242.5C 245.103,231.949 256.103,231.949 267,242.5C 269.981,249.344 270.314,256.344 268,263.5C 265.28,273.214 263.113,283.047 261.5,293C 261.376,295.59 262.042,297.923 263.5,300C 270.999,302.166 276.166,299.666 279,292.5C 279.262,276.383 283.928,261.716 293,248.5C 304.108,234.685 317.941,230.851 334.5,237C 336.378,238.543 337.878,240.376 339,242.5C 340.64,263.021 331.473,276.188 311.5,282C 308.574,282.218 305.74,282.718 303,283.5C 299.923,299.09 306.09,305.257 321.5,302C 329.744,299.283 336.578,294.45 342,287.5C 346.023,270.554 349.856,253.554 353.5,236.5C 361.138,235.503 368.804,235.169 376.5,235.5C 375.833,237.819 375.666,240.153 376,242.5C 387.222,231.953 398.222,231.953 409,242.5C 411.394,248.276 412.061,254.276 411,260.5C 408.341,271.47 405.841,282.47 403.5,293.5C 403.404,295.926 404.07,298.093 405.5,300C 408.482,300.498 411.482,300.665 414.5,300.5C 414.107,308.4 410.107,313.566 402.5,316C 392.016,318.493 385.183,314.66 382,304.5C 381.333,300.5 381.333,296.5 382,292.5C 384.488,281.217 386.655,269.884 388.5,258.5C 388.044,249.05 383.877,247.05 376,252.5C 374.08,255.339 372.413,258.339 371,261.5C 367.063,279.144 363.23,296.81 359.5,314.5C 351.862,315.497 344.196,315.831 336.5,315.5C 337.67,310.171 338.503,304.838 339,299.5C 324.656,315.712 307.49,319.878 287.5,312C 284.727,309.617 282.561,306.783 281,303.5C 271.477,315.837 259.644,319.004 245.5,313C 241.277,308.888 239.277,303.888 239.5,298C 241.355,284.581 243.688,271.247 246.5,258C 246.013,249.238 242.013,247.238 234.5,252C 233,254.167 231.5,256.333 230,258.5C 225.403,277.415 221.237,296.415 217.5,315.5C 209.833,315.5 202.167,315.5 194.5,315.5C 201.931,279.845 209.431,244.179 217,208.5C 217.772,207.151 218.939,206.318 220.5,206C 225.706,205.563 230.706,204.73 235.5,203.5 Z"/></g>
<g><path style="opacity:1" fill="#5a2244" d="M 182.5,232.5 C 188.898,231.053 193.731,233.053 197,238.5C 199.23,261.467 193.897,282.467 181,301.5C 169.997,315.873 156.164,319.706 139.5,313C 136.469,310.441 134.302,307.274 133,303.5C 126.479,313.453 117.312,317.619 105.5,316C 99.2602,314.092 95.4269,309.925 94,303.5C 93.3333,298.5 93.3333,293.5 94,288.5C 97.7707,270.812 101.604,253.146 105.5,235.5C 113.167,235.5 120.833,235.5 128.5,235.5C 124.581,254.678 120.581,273.845 116.5,293C 116.82,300.567 120.486,302.567 127.5,299C 129.956,296.592 131.789,293.759 133,290.5C 137.479,272.29 141.312,253.957 144.5,235.5C 152.167,235.5 159.833,235.5 167.5,235.5C 163.822,255.232 159.822,274.899 155.5,294.5C 155.486,296.593 156.152,298.426 157.5,300C 165.867,301.232 172.034,298.066 176,290.5C 183.848,277.477 187.681,263.477 187.5,248.5C 183.712,250.179 180.879,249.179 179,245.5C 177.539,240.326 178.706,235.993 182.5,232.5 Z"/></g>
<g><path style="opacity:1" fill="#e9d4c0" d="M 320.5,242.5 C 323.044,242.104 325.211,242.771 327,244.5C 328.298,261.242 320.798,271.576 304.5,275.5C 306.408,262.687 311.742,251.687 320.5,242.5 Z"/></g>
<g><path style="opacity:1" fill="#5d2746" d="M 379.5,319.5 C 380.552,319.351 381.552,319.517 382.5,320C 381.76,321.785 381.093,323.618 380.5,325.5C 382.833,326.167 385.167,326.833 387.5,327.5C 386.754,328.736 386.421,330.07 386.5,331.5C 383.881,331.232 381.381,331.565 379,332.5C 377.202,337.689 376.369,343.022 376.5,348.5C 378.936,348.683 381.103,348.016 383,346.5C 384.9,351.901 383.067,354.234 377.5,353.5C 370.183,353.327 367.683,349.66 370,342.5C 370.755,339.312 371.589,336.145 372.5,333C 369.663,329.68 370.329,327.514 374.5,326.5C 374.281,322.732 375.947,320.398 379.5,319.5 Z"/></g>
<g><path style="opacity:1" fill="#5e2746" d="M 262.5,326.5 C 268.12,326.773 273.787,327.106 279.5,327.5C 278.376,328.914 277.376,330.414 276.5,332C 272.506,330.632 269.34,331.798 267,335.5C 264.872,341.345 263.372,347.345 262.5,353.5C 260.076,353.808 257.743,353.474 255.5,352.5C 257.84,343.804 260.173,335.138 262.5,326.5 Z"/></g>
<g><path style="opacity:1" fill="#5d2645" d="M 286.5,326.5 C 291.109,325.974 295.443,326.641 299.5,328.5C 300.192,329.025 300.692,329.692 301,330.5C 301.667,333.5 301.667,336.5 301,339.5C 295.126,341.43 288.96,342.097 282.5,341.5C 281.831,347 284.165,349.167 289.5,348C 291.329,347.727 292.829,346.893 294,345.5C 297.666,349.894 296.499,352.394 290.5,353C 277.439,354.753 272.939,349.253 277,336.5C 279.022,331.98 282.189,328.647 286.5,326.5 Z"/></g>
<g><path style="opacity:1" fill="#5d2746" d="M 306.5,326.5 C 308.766,326.141 310.599,326.808 312,328.5C 316.533,325.864 321.033,325.864 325.5,328.5C 330.687,325.506 335.52,325.839 340,329.5C 339.643,336.945 338.31,344.278 336,351.5C 334.246,353.25 332.079,353.917 329.5,353.5C 330.592,347.297 331.925,341.13 333.5,335C 331.668,330.531 329.168,330.364 326,334.5C 324.024,340.735 322.524,347.068 321.5,353.5C 319.076,353.808 316.743,353.474 314.5,352.5C 316.243,346.361 317.91,340.194 319.5,334C 319.266,332.268 318.266,331.434 316.5,331.5C 314.226,332.221 312.393,333.554 311,335.5C 309.655,341.216 308.155,346.882 306.5,352.5C 304.604,353.466 302.604,353.799 300.5,353.5C 302.342,344.466 304.342,335.466 306.5,326.5 Z"/></g>
<g><path style="opacity:1" fill="#5f2847" d="M 351.5,326.5 C 367.15,325.682 371.317,332.349 364,346.5C 359.486,353.081 353.32,355.247 345.5,353C 341.695,348.909 340.528,344.076 342,338.5C 343.92,333.424 347.086,329.424 351.5,326.5 Z"/></g>
<g><path style="opacity:1" fill="#5c2545" d="M 397.5,326.5 C 409.906,324.567 414.573,329.567 411.5,341.5C 405.167,341.5 398.833,341.5 392.5,341.5C 392.644,346.813 395.31,348.979 400.5,348C 406.404,344.57 407.737,345.903 404.5,352C 386.829,355.545 381.995,349.045 390,332.5C 392.114,329.879 394.614,327.879 397.5,326.5 Z"/></g>
<g><path style="opacity:1" fill="#dac2b3" d="M 288.5,331.5 C 292.851,330.533 295.185,332.2 295.5,336.5C 291.774,336.823 288.107,336.489 284.5,335.5C 285.549,333.784 286.882,332.451 288.5,331.5 Z"/></g>
<g><path style="opacity:1" fill="#e8d3bf" d="M 354.5,331.5 C 356.467,331.261 358.301,331.594 360,332.5C 360.995,338.695 359.162,343.861 354.5,348C 352.833,348.667 351.167,348.667 349.5,348C 347.115,341.184 348.782,335.684 354.5,331.5 Z"/></g>
<g><path style="opacity:1" fill="#e3ccba" d="M 405.5,333.5 C 402.663,335.402 399.329,336.069 395.5,335.5C 398.326,331.334 401.66,330.667 405.5,333.5 Z"/></g>
<g><path style="opacity:1" fill="#ba9996" d="M 405.5,333.5 C 406.404,334.209 406.737,335.209 406.5,336.5C 402.051,336.836 398.384,336.503 395.5,335.5C 399.329,336.069 402.663,335.402 405.5,333.5 Z"/></g>
</svg>
